<svg width="98" height="80" viewBox="0 0 98 80" fill="none" xmlns="http://www.w3.org/2000/svg">
<path d="M88 0C91.3137 0 94 2.68629 94 6V16.7754C92.5926 16.273 90.9813 16.2851 89.4561 16.999L54.4561 33.3818C52.3471 34.3691 51 36.5113 51 38.8398C51.0002 41.0758 52.2438 43.148 54.2266 44.1816L89.2266 62.4268C90.8103 63.2523 92.5164 63.2917 94 62.7617V73.5C94 76.8137 91.3137 79.5 88 79.5H6C2.68629 79.5 0 76.8137 0 73.5V6C0 2.68629 2.68629 0 6 0H88ZM94 16.7754C96.2637 17.5834 98 19.7249 98 22.4336V57.1064C97.9998 59.8249 96.2582 61.955 94 62.7617V16.7754Z" fill="#0086F4"/>
</svg>
